<svg width="1020" height="350" viewBox="0 0 1020 350" fill="none" xmlns="http://www.w3.org/2000/svg">
<g clip-path="url(#clip0_410_3)">
<rect width="1020" height="350" rx="32" fill="url(#paint0_linear_410_3)"/>
<g opacity="0.43">
<path d="M403.952 353.248C403.952 357.377 400.605 360.724 396.476 360.724C392.347 360.724 389 357.377 389 353.248C389 349.119 392.347 345.772 396.476 345.772C397.35 345.772 398.188 345.922 398.968 346.198C401.296 347.02 403.094 348.963 403.716 351.379C403.87 351.976 403.952 352.603 403.952 353.248Z" fill="url(#paint1_linear_410_3)"/>
<path d="M446.315 314L398.968 346.198C401.296 347.02 403.094 348.963 403.716 351.379L446.315 314Z" fill="url(#paint2_linear_410_3)"/>
<path d="M745.952 276.248C745.952 280.377 742.605 283.724 738.476 283.724C734.347 283.724 731 280.377 731 276.248C731 272.119 734.347 268.772 738.476 268.772C739.35 268.772 740.188 268.922 740.968 269.198C743.296 270.02 745.094 271.963 745.716 274.379C745.87 274.976 745.952 275.603 745.952 276.248Z" fill="url(#paint3_linear_410_3)"/>
<path d="M788.315 237L740.968 269.198C743.296 270.02 745.094 271.963 745.716 274.379L788.315 237Z" fill="url(#paint4_linear_410_3)"/>
<path d="M477.952 96.248C477.952 100.377 474.605 103.724 470.476 103.724C466.347 103.724 463 100.377 463 96.248C463 92.1192 466.347 88.7722 470.476 88.7722C471.35 88.7722 472.188 88.9221 472.968 89.1976C475.296 90.0204 477.094 91.9634 477.716 94.379C477.87 94.9764 477.952 95.6026 477.952 96.248Z" fill="url(#paint5_linear_410_3)"/>
<path d="M520.315 57L472.968 89.1976C475.296 90.0204 477.094 91.9634 477.716 94.379L520.315 57Z" fill="url(#paint6_linear_410_3)"/>
<path d="M78.9516 318.248C78.9516 322.377 75.6046 325.724 71.4758 325.724C67.347 325.724 64 322.377 64 318.248C64 314.119 67.347 310.772 71.4758 310.772C72.3496 310.772 73.1883 310.922 73.9677 311.198C76.2957 312.02 78.0944 313.963 78.7161 316.379C78.8698 316.976 78.9516 317.603 78.9516 318.248Z" fill="url(#paint7_linear_410_3)"/>
<path d="M121.315 279L73.9677 311.198C76.2957 312.02 78.0944 313.963 78.7161 316.379L121.315 279Z" fill="url(#paint8_linear_410_3)"/>
<path d="M963.952 119.248C963.952 123.377 960.605 126.724 956.476 126.724C952.347 126.724 949 123.377 949 119.248C949 115.119 952.347 111.772 956.476 111.772C957.35 111.772 958.188 111.922 958.968 112.198C961.296 113.02 963.094 114.963 963.716 117.379C963.87 117.976 963.952 118.603 963.952 119.248Z" fill="url(#paint9_linear_410_3)"/>
<path d="M1006.31 80L958.968 112.198C961.296 113.02 963.094 114.963 963.716 117.379L1006.31 80Z" fill="url(#paint10_linear_410_3)"/>
<path d="M78.9516 65.248C78.9516 69.3768 75.6046 72.7238 71.4758 72.7238C67.347 72.7238 64 69.3768 64 65.248C64 61.1192 67.347 57.7722 71.4758 57.7722C72.3496 57.7722 73.1883 57.9221 73.9677 58.1976C76.2957 59.0204 78.0944 60.9634 78.7161 63.379C78.8698 63.9764 78.9516 64.6026 78.9516 65.248Z" fill="url(#paint11_linear_410_3)"/>
<path d="M121.315 26L73.9677 58.1976C76.2957 59.0204 78.0944 60.9634 78.7161 63.379L121.315 26Z" fill="url(#paint12_linear_410_3)"/>
<path d="M282.241 65.248C282.241 69.3768 278.894 72.7238 274.765 72.7238C270.636 72.7238 267.289 69.3768 267.289 65.248C267.289 61.1192 270.636 57.7722 274.765 57.7722C275.639 57.7722 276.478 57.9221 277.257 58.1976C279.585 59.0204 281.384 60.9634 282.006 63.379C282.159 63.9764 282.241 64.6026 282.241 65.248Z" fill="url(#paint13_linear_410_3)"/>
<path d="M324.604 26L277.257 58.1976C279.585 59.0204 281.384 60.9634 282.006 63.379L324.604 26Z" fill="url(#paint14_linear_410_3)"/>
<path d="M802.637 49.248C802.637 53.3768 799.29 56.7238 795.161 56.7238C791.033 56.7238 787.686 53.3768 787.686 49.248C787.686 45.1192 791.033 41.7722 795.161 41.7722C796.035 41.7722 796.874 41.9221 797.653 42.1976C799.981 43.0204 801.78 44.9634 802.402 47.379C802.555 47.9764 802.637 48.6026 802.637 49.248Z" fill="url(#paint15_linear_410_3)"/>
<path d="M845 10L797.653 42.1976C799.981 43.0204 801.78 44.9634 802.402 47.379L845 10Z" fill="url(#paint16_linear_410_3)"/>
</g>
<rect x="32.5" y="59" width="231" height="231" rx="37.5448" fill="url(#paint17_linear_410_3)"/>
<path d="M154.705 222.06H144.502V150.554H119.22V141.658H179.873V150.554H154.705V222.06ZM206.734 236.78H161.499V156.379H206.734V165.275H171.703V190.386H204.693V199.169H171.703V227.884H206.734V236.78Z" fill="url(#paint18_linear_410_3)"/>
<path fill-rule="evenodd" clip-rule="evenodd" d="M97.0646 144.014C87.2814 144.014 79.3503 136.136 79.3503 126.419C79.3503 116.702 87.2814 108.824 97.0646 108.824C104.996 108.824 111.711 114.002 113.968 121.141L192.647 121.143C194.904 114.004 201.618 108.827 209.55 108.827C219.333 108.827 227.265 116.704 227.265 126.421C227.265 136.139 219.333 144.016 209.55 144.016C201.618 144.016 194.904 138.838 192.647 131.699L113.968 131.697C111.711 138.836 104.996 144.014 97.0646 144.014ZM97.0665 133.457C100.965 133.458 104.15 130.291 104.152 126.419C104.154 122.546 100.965 119.383 97.0665 119.381C93.1676 119.379 89.9826 122.546 89.9808 126.419C89.979 130.291 93.1676 133.455 97.0665 133.457ZM209.548 133.459C205.649 133.461 202.464 130.294 202.463 126.421C202.461 122.548 205.649 119.385 209.548 119.383C213.447 119.381 216.632 122.548 216.634 126.421C216.636 130.294 213.447 133.457 209.548 133.459Z" fill="url(#paint19_linear_410_3)"/>
<path d="M91.7373 143.204L91.7634 167.767H83.7921C79.3636 167.767 74.935 156.331 74.935 153.691H68.7351V194.16H74.935C74.935 191.52 79.3636 178.324 83.7921 178.324H91.7634V193.28C91.7634 197.679 86.4492 202.957 82.0207 202.957H77.5922V209.995H116.563V202.957H112.135C107.706 202.957 102.392 197.679 102.392 193.28V178.324H108.592C113.02 178.324 119.22 191.52 119.22 194.16H125.42V153.691H119.22C119.22 156.331 113.02 167.767 108.592 167.767H102.392V143.204C100.71 143.73 98.9209 144.014 97.0646 144.014C95.2083 144.014 93.4187 143.73 91.7373 143.204Z" fill="url(#paint20_linear_410_3)"/>
<path opacity="0.3" d="M662.044 161.228L661.972 94.0404C666.575 95.4791 671.475 96.2548 676.557 96.2548M662.044 161.228C662.044 161.228 652.345 161.228 640.221 161.228M662.044 161.228H640.221M640.221 161.228C628.097 161.228 615.973 129.945 615.973 122.726H599V233.419H615.973C615.973 226.2 628.097 190.105 640.221 190.105M640.221 190.105C652.345 190.105 662.044 190.105 662.044 190.105M640.221 190.105H662.044M662.044 190.105V231.013C662.044 243.045 647.495 257.483 635.371 257.483M635.371 257.483C625.672 257.483 623.248 257.483 623.248 257.483M635.371 257.483H623.248M623.248 257.483V276.734H729.937V257.483M729.937 257.483C729.937 257.483 722.663 257.483 717.814 257.483M729.937 257.483H717.814M717.814 257.483C705.69 257.483 691.141 243.045 691.141 231.013V190.105H708.114C720.238 190.105 737.212 226.2 737.212 233.419H754.185V122.726H737.212C737.212 129.945 720.238 161.228 708.114 161.228H691.141V94.0404C686.538 95.4791 681.638 96.2548 676.557 96.2548M676.557 96.2548C649.773 96.2548 628.061 74.7074 628.061 48.1274C628.061 21.5474 649.773 0 676.557 0C698.271 0 716.653 14.1634 722.832 33.6892L938.228 33.6946C944.408 14.1688 962.79 0.00629786 984.504 0.00629786C1011.29 0.00629786 1033 21.5537 1033 48.1337C1033 74.7137 1011.29 96.2611 984.504 96.2611C962.79 96.2611 944.408 82.0969 938.228 62.5711L722.832 62.5656C716.653 82.0914 698.271 96.2548 676.557 96.2548ZM834.357 309.735H806.424V114.144H737.212V89.8108H903.259V114.144H834.357V309.735ZM976.795 350H852.957V130.076H976.795V154.41H880.891V223.097H971.208V247.123H880.891V325.667H976.795V350ZM695.96 48.1266C695.955 58.7195 687.236 67.3825 676.562 67.3775C665.888 67.3725 657.159 58.7195 657.164 48.1266C657.169 37.5337 665.888 28.8709 676.562 28.8758C687.236 28.8808 695.965 37.5337 695.96 48.1266ZM965.101 48.1329C965.106 58.7258 973.825 67.3888 984.499 67.3838C995.173 67.3788 1003.9 58.7258 1003.9 48.1329C1003.89 37.54 995.173 28.8772 984.499 28.8821C973.825 28.8871 965.096 37.54 965.101 48.1329Z" stroke="url(#paint21_linear_410_3)"/>
<path d="M493.46 75.5566C493.46 78.0703 492.783 80.2588 491.43 82.1221C490.094 83.9854 488.213 85.374 485.787 86.2881C483.361 87.2021 480.443 87.6592 477.033 87.6592C473.078 87.6592 469.457 86.9912 466.17 85.6553V75.293C467.752 76.4531 469.501 77.3936 471.417 78.1143C473.333 78.8174 475.117 79.1689 476.77 79.1689C478.018 79.1689 478.984 78.9492 479.67 78.5098C480.355 78.0527 480.698 77.3936 480.698 76.5322C480.698 75.917 480.522 75.3809 480.171 74.9238C479.837 74.4492 479.318 74.0098 478.615 73.6055C477.93 73.2012 476.646 72.6475 474.766 71.9443C468.684 69.6064 465.643 65.8271 465.643 60.6064C465.643 56.9502 467.031 54.0322 469.809 51.8525C472.586 49.6553 476.312 48.5566 480.988 48.5566C482.307 48.5566 483.52 48.6094 484.627 48.7148C485.734 48.8203 486.736 48.9521 487.633 49.1104C488.547 49.2686 489.821 49.5674 491.456 50.0068V59.6309C488.274 57.8906 485.146 57.0205 482.069 57.0205C480.804 57.0205 479.784 57.2578 479.011 57.7324C478.237 58.207 477.851 58.8574 477.851 59.6836C477.851 60.4746 478.158 61.1338 478.773 61.6611C479.406 62.1709 480.716 62.8389 482.702 63.665C486.622 65.2471 489.391 66.9785 491.008 68.8594C492.643 70.7402 493.46 72.9727 493.46 75.5566ZM527.526 72.6826C527.526 75.6357 527.025 78.2461 526.023 80.5137C525.021 82.7812 523.606 84.5391 521.778 85.7871C519.95 87.0352 517.894 87.6592 515.608 87.6592C512.444 87.6592 510.045 86.5078 508.41 84.2051H508.305V99.4189H497.072V60H508.305V63.665H508.41C509.307 62.3115 510.467 61.2568 511.891 60.501C513.314 59.7275 514.932 59.3408 516.742 59.3408C520.223 59.3408 522.886 60.501 524.731 62.8213C526.595 65.1416 527.526 68.4287 527.526 72.6826ZM516.136 73.0254C516.136 71.3203 515.802 69.9844 515.134 69.0176C514.483 68.0508 513.473 67.5674 512.102 67.5674C510.906 67.5674 509.939 68.0771 509.201 69.0967C508.463 70.1162 508.094 71.5137 508.094 73.2891V73.8164C508.094 75.5215 508.41 76.8838 509.043 77.9033C509.676 78.9229 510.625 79.4326 511.891 79.4326C513.244 79.4326 514.29 78.8789 515.028 77.7715C515.767 76.6465 516.136 75.0645 516.136 73.0254ZM541.448 76.6904C541.642 77.8506 542.31 78.7646 543.452 79.4326C544.595 80.083 546.106 80.4082 547.987 80.4082C550.606 80.4082 553.085 79.9072 555.423 78.9053V86.0244C552.698 87.1143 549.394 87.6592 545.509 87.6592C540.798 87.6592 537.133 86.4551 534.514 84.0469C531.895 81.6387 530.585 78.3252 530.585 74.1064C530.585 71.2061 531.156 68.6484 532.299 66.4336C533.459 64.2188 535.164 62.4873 537.414 61.2393C539.682 59.9736 542.178 59.3408 544.902 59.3408C547.697 59.3408 550.088 59.8857 552.074 60.9756C554.061 62.0654 555.563 63.5947 556.583 65.5635C557.62 67.5322 558.139 69.835 558.139 72.4717V76.6904H541.448ZM548.198 70.8105C548.198 67.6992 547.082 66.1436 544.85 66.1436C543.918 66.1436 543.136 66.5742 542.503 67.4355C541.87 68.2793 541.501 69.4043 541.396 70.8105H548.198ZM584.295 86.2354C583.574 86.6572 582.44 87 580.894 87.2637C579.347 87.5273 577.562 87.6592 575.541 87.6592C572.693 87.6592 570.145 87.0879 567.895 85.9453C565.662 84.7852 563.931 83.168 562.7 81.0938C561.47 79.0195 560.854 76.6904 560.854 74.1064C560.854 71.0127 561.505 68.3672 562.806 66.1699C564.124 63.9551 565.996 62.2676 568.422 61.1074C570.848 59.9297 573.66 59.3408 576.859 59.3408C578.617 59.3408 580.19 59.4551 581.579 59.6836C582.985 59.9121 583.891 60.1758 584.295 60.4746V69.2285C583.732 68.7891 582.924 68.4023 581.869 68.0684C580.814 67.7344 579.839 67.5674 578.942 67.5674C576.745 67.5674 575.075 68.0947 573.933 69.1494C572.808 70.1865 572.245 71.6543 572.245 73.5527C572.245 75.416 572.799 76.8662 573.906 77.9033C575.031 78.9229 576.569 79.4326 578.521 79.4326C580.612 79.4326 582.537 78.9316 584.295 77.9297V86.2354ZM600.669 52.7227C600.669 54.3047 600.089 55.5879 598.929 56.5723C597.786 57.5566 596.274 58.0488 594.394 58.0488C592.565 58.0488 591.062 57.5391 589.885 56.5195C588.725 55.5 588.145 54.2344 588.145 52.7227C588.145 51.1758 588.707 49.9277 589.832 48.9785C590.975 48.0117 592.495 47.5283 594.394 47.5283C596.274 47.5283 597.786 48.0117 598.929 48.9785C600.089 49.9277 600.669 51.1758 600.669 52.7227ZM588.777 87V60H600.01V87H588.777ZM620.418 87V82.8867H620.312C618.52 86.0684 615.777 87.6592 612.086 87.6592C609.537 87.6592 607.542 86.9033 606.101 85.3916C604.659 83.8799 603.938 81.8584 603.938 79.3271C603.938 74.0186 607.199 70.9424 613.721 70.0986L620.418 69.2285C620.418 68.3496 620.022 67.6289 619.231 67.0664C618.44 66.5039 617.377 66.2227 616.041 66.2227C613.018 66.2227 609.827 67.084 606.47 68.8066V61.5029C607.929 60.8701 609.757 60.3516 611.954 59.9473C614.151 59.543 616.032 59.3408 617.597 59.3408C622.185 59.3408 625.507 60.3252 627.563 62.2939C629.638 64.2451 630.675 67.5146 630.675 72.1025V87H620.418ZM613.773 77.8242C613.773 78.5625 614.002 79.1689 614.459 79.6436C614.934 80.1182 615.602 80.3555 616.463 80.3555C617.641 80.3555 618.59 79.916 619.311 79.0371C620.049 78.1582 620.418 77.0332 620.418 75.6621V74.6338L616.621 75.1611C614.723 75.4775 613.773 76.3652 613.773 77.8242ZM635.764 87V47.0273H646.996V87H635.764ZM664.319 52.7227C664.319 54.3047 663.739 55.5879 662.579 56.5723C661.437 57.5566 659.925 58.0488 658.044 58.0488C656.216 58.0488 654.713 57.5391 653.535 56.5195C652.375 55.5 651.795 54.2344 651.795 52.7227C651.795 51.1758 652.357 49.9277 653.482 48.9785C654.625 48.0117 656.146 47.5283 658.044 47.5283C659.925 47.5283 661.437 48.0117 662.579 48.9785C663.739 49.9277 664.319 51.1758 664.319 52.7227ZM652.428 87V60H663.66V87H652.428ZM691.029 78.0352C691.029 81.0938 689.86 83.4668 687.522 85.1543C685.202 86.8242 681.959 87.6592 677.793 87.6592C676.58 87.6592 675.077 87.5361 673.284 87.29C671.509 87.0439 670.059 86.7451 668.934 86.3936V78.5098C672.256 79.9863 675.033 80.7246 677.266 80.7246C679.463 80.7246 680.562 80.1533 680.562 79.0107C680.562 78.5361 680.307 78.1494 679.797 77.8506C679.287 77.5342 677.951 77.0156 675.789 76.2949C673.398 75.5391 671.658 74.5371 670.568 73.2891C669.479 72.041 668.934 70.415 668.934 68.4111C668.934 65.6162 670.041 63.4102 672.256 61.793C674.488 60.1582 677.617 59.3408 681.643 59.3408C683.998 59.3408 686.494 59.6836 689.131 60.3691V67.9365C688.023 67.4619 686.811 67.0664 685.492 66.75C684.174 66.4336 683.066 66.2754 682.17 66.2754C681.432 66.2754 680.843 66.3984 680.403 66.6445C679.964 66.8906 679.744 67.2334 679.744 67.6729C679.744 68.1826 679.981 68.5957 680.456 68.9121C680.931 69.2285 681.88 69.6064 683.304 70.0459C686.063 70.8545 688.041 71.8916 689.236 73.1572C690.432 74.4229 691.029 76.0488 691.029 78.0352ZM714.206 86.6309C713.696 86.877 712.861 87.1055 711.701 87.3164C710.541 87.5449 709.144 87.6592 707.509 87.6592C704.38 87.6592 701.928 86.7979 700.152 85.0752C698.395 83.3525 697.516 80.9004 697.516 77.7188V67.7783H693.271V60H697.516V54.7002L708.59 51.6416V60H714.206V67.7783H708.59V75.873C708.59 78.2461 709.53 79.4326 711.411 79.4326C712.29 79.4326 713.222 79.2393 714.206 78.8525V86.6309ZM744.634 52.7227C744.634 54.3047 744.054 55.5879 742.894 56.5723C741.751 57.5566 740.239 58.0488 738.358 58.0488C736.53 58.0488 735.027 57.5391 733.85 56.5195C732.689 55.5 732.109 54.2344 732.109 52.7227C732.109 51.1758 732.672 49.9277 733.797 48.9785C734.939 48.0117 736.46 47.5283 738.358 47.5283C740.239 47.5283 741.751 48.0117 742.894 48.9785C744.054 49.9277 744.634 51.1758 744.634 52.7227ZM732.742 87V60H743.975V87H732.742ZM766.914 87V72.2607C766.914 70.5908 766.659 69.3955 766.149 68.6748C765.657 67.9365 764.849 67.5674 763.724 67.5674C762.757 67.5674 762.001 67.9453 761.456 68.7012C760.911 69.457 760.639 70.4238 760.639 71.6016V87H749.406V60H760.639V64.2188H760.744C761.641 62.6719 762.845 61.4766 764.356 60.6328C765.868 59.7715 767.512 59.3408 769.287 59.3408C775.193 59.3408 778.146 63.0674 778.146 70.5205V87H766.914ZM343.431 140.62C343.431 144.452 342.622 147.845 341.005 150.798C339.405 153.733 337.111 156.001 334.123 157.601C331.135 159.2 327.689 160 323.787 160H307.782V122.189H323.444C336.769 122.189 343.431 128.333 343.431 140.62ZM331.328 140.726C331.328 138.88 330.95 137.219 330.194 135.742C329.456 134.266 328.393 133.123 327.004 132.314C325.615 131.506 323.98 131.102 322.1 131.102H319.173V151.088H322.363C325.088 151.088 327.259 150.156 328.876 148.293C330.511 146.412 331.328 143.89 331.328 140.726ZM357.405 149.69C357.599 150.851 358.267 151.765 359.409 152.433C360.552 153.083 362.063 153.408 363.944 153.408C366.563 153.408 369.042 152.907 371.38 151.905V159.024C368.655 160.114 365.351 160.659 361.466 160.659C356.755 160.659 353.09 159.455 350.471 157.047C347.852 154.639 346.542 151.325 346.542 147.106C346.542 144.206 347.113 141.648 348.256 139.434C349.416 137.219 351.121 135.487 353.371 134.239C355.639 132.974 358.135 132.341 360.859 132.341C363.654 132.341 366.045 132.886 368.031 133.976C370.018 135.065 371.521 136.595 372.54 138.563C373.577 140.532 374.096 142.835 374.096 145.472V149.69H357.405ZM364.155 143.811C364.155 140.699 363.039 139.144 360.807 139.144C359.875 139.144 359.093 139.574 358.46 140.436C357.827 141.279 357.458 142.404 357.353 143.811H364.155ZM397.668 160H384.326L375.309 133H387.016L390.312 147.739C390.839 150.112 391.129 151.896 391.182 153.092H391.34C391.375 152.74 391.419 152.38 391.472 152.011C391.542 151.642 392.852 145.305 395.4 133H407.055L397.668 160ZM419.421 149.69C419.614 150.851 420.282 151.765 421.425 152.433C422.567 153.083 424.079 153.408 425.96 153.408C428.579 153.408 431.058 152.907 433.396 151.905V159.024C430.671 160.114 427.366 160.659 423.481 160.659C418.771 160.659 415.105 159.455 412.486 157.047C409.867 154.639 408.558 151.325 408.558 147.106C408.558 144.206 409.129 141.648 410.271 139.434C411.432 137.219 413.137 135.487 415.387 134.239C417.654 132.974 420.15 132.341 422.875 132.341C425.67 132.341 428.061 132.886 430.047 133.976C432.033 135.065 433.536 136.595 434.556 138.563C435.593 140.532 436.111 142.835 436.111 145.472V149.69H419.421ZM426.171 143.811C426.171 140.699 425.055 139.144 422.822 139.144C421.891 139.144 421.108 139.574 420.476 140.436C419.843 141.279 419.474 142.404 419.368 143.811H426.171ZM440.014 160V120.027H451.246V160H440.014ZM486.71 146.025C486.71 150.578 485.33 154.155 482.57 156.757C479.828 159.358 475.987 160.659 471.048 160.659C466.144 160.659 462.32 159.394 459.578 156.862C456.854 154.313 455.491 150.807 455.491 146.342C455.491 143.477 456.133 140.989 457.416 138.88C458.699 136.771 460.527 135.153 462.9 134.028C465.273 132.903 468.007 132.341 471.101 132.341C474.3 132.341 477.068 132.93 479.406 134.107C481.762 135.285 483.563 136.92 484.812 139.012C486.077 141.104 486.71 143.441 486.71 146.025ZM475.319 146.078C475.319 142.404 473.913 140.567 471.101 140.567C468.288 140.567 466.882 142.492 466.882 146.342C466.882 150.402 468.306 152.433 471.153 152.433C473.931 152.433 475.319 150.314 475.319 146.078ZM521.356 145.683C521.356 148.636 520.855 151.246 519.854 153.514C518.852 155.781 517.437 157.539 515.608 158.787C513.78 160.035 511.724 160.659 509.438 160.659C506.274 160.659 503.875 159.508 502.24 157.205H502.135V172.419H490.902V133H502.135V136.665H502.24C503.137 135.312 504.297 134.257 505.721 133.501C507.145 132.728 508.762 132.341 510.572 132.341C514.053 132.341 516.716 133.501 518.562 135.821C520.425 138.142 521.356 141.429 521.356 145.683ZM509.966 146.025C509.966 144.32 509.632 142.984 508.964 142.018C508.313 141.051 507.303 140.567 505.932 140.567C504.736 140.567 503.77 141.077 503.031 142.097C502.293 143.116 501.924 144.514 501.924 146.289V146.816C501.924 148.521 502.24 149.884 502.873 150.903C503.506 151.923 504.455 152.433 505.721 152.433C507.074 152.433 508.12 151.879 508.858 150.771C509.597 149.646 509.966 148.064 509.966 146.025ZM560.617 160V144.443C560.617 143.143 560.38 142.176 559.905 141.543C559.448 140.893 558.692 140.567 557.638 140.567C556.601 140.567 555.792 140.963 555.212 141.754C554.632 142.527 554.342 143.608 554.342 144.997V160H543.109V144.707C543.109 141.947 542.169 140.567 540.288 140.567C539.146 140.567 538.284 140.972 537.704 141.78C537.124 142.571 536.834 143.714 536.834 145.208V160H525.602V133H536.834V137.271H536.939C537.361 136.516 538.029 135.751 538.943 134.978C539.875 134.187 540.921 133.554 542.081 133.079C543.241 132.587 544.498 132.341 545.852 132.341C547.768 132.341 549.376 132.719 550.677 133.475C551.995 134.23 553.094 135.426 553.973 137.061C554.922 135.549 556.188 134.389 557.77 133.58C559.352 132.754 561.109 132.341 563.043 132.341C565.873 132.341 568.044 133.264 569.556 135.109C571.067 136.955 571.823 139.618 571.823 143.099V160H560.617ZM586.589 149.69C586.782 150.851 587.45 151.765 588.593 152.433C589.735 153.083 591.247 153.408 593.128 153.408C595.747 153.408 598.226 152.907 600.563 151.905V159.024C597.839 160.114 594.534 160.659 590.649 160.659C585.938 160.659 582.273 159.455 579.654 157.047C577.035 154.639 575.726 151.325 575.726 147.106C575.726 144.206 576.297 141.648 577.439 139.434C578.6 137.219 580.305 135.487 582.555 134.239C584.822 132.974 587.318 132.341 590.043 132.341C592.838 132.341 595.229 132.886 597.215 133.976C599.201 135.065 600.704 136.595 601.724 138.563C602.761 140.532 603.279 142.835 603.279 145.472V149.69H586.589ZM593.339 143.811C593.339 140.699 592.223 139.144 589.99 139.144C589.059 139.144 588.276 139.574 587.644 140.436C587.011 141.279 586.642 142.404 586.536 143.811H593.339ZM624.689 160V145.261C624.689 143.591 624.435 142.396 623.925 141.675C623.433 140.937 622.624 140.567 621.499 140.567C620.532 140.567 619.776 140.945 619.231 141.701C618.687 142.457 618.414 143.424 618.414 144.602V160H607.182V133H618.414V137.219H618.52C619.416 135.672 620.62 134.477 622.132 133.633C623.644 132.771 625.287 132.341 627.062 132.341C632.969 132.341 635.922 136.067 635.922 143.521V160H624.689ZM659.995 159.631C659.485 159.877 658.65 160.105 657.49 160.316C656.33 160.545 654.933 160.659 653.298 160.659C650.169 160.659 647.717 159.798 645.941 158.075C644.184 156.353 643.305 153.9 643.305 150.719V140.778H639.06V133H643.305V127.7L654.379 124.642V133H659.995V140.778H654.379V148.873C654.379 151.246 655.319 152.433 657.2 152.433C658.079 152.433 659.011 152.239 659.995 151.853V159.631ZM690.95 131.102V137.904H702.183V146.816H690.95V160H679.56V122.189H703.264V131.102H690.95ZM728.049 142.624C727.627 142.431 727.056 142.255 726.335 142.097C725.614 141.938 725.017 141.859 724.542 141.859C720.833 141.859 718.979 144.004 718.979 148.293V160H707.746V133H718.979V137.746H719.084C719.77 136.041 720.745 134.749 722.011 133.87C723.276 132.974 724.753 132.525 726.44 132.525C727.056 132.525 727.592 132.631 728.049 132.842V142.624ZM761.351 146.025C761.351 150.578 759.971 154.155 757.211 156.757C754.469 159.358 750.628 160.659 745.688 160.659C740.784 160.659 736.961 159.394 734.219 156.862C731.494 154.313 730.132 150.807 730.132 146.342C730.132 143.477 730.773 140.989 732.057 138.88C733.34 136.771 735.168 135.153 737.541 134.028C739.914 132.903 742.647 132.341 745.741 132.341C748.94 132.341 751.709 132.93 754.047 134.107C756.402 135.285 758.204 136.92 759.452 139.012C760.718 141.104 761.351 143.441 761.351 146.025ZM749.96 146.078C749.96 142.404 748.554 140.567 745.741 140.567C742.929 140.567 741.522 142.492 741.522 146.342C741.522 150.402 742.946 152.433 745.794 152.433C748.571 152.433 749.96 150.314 749.96 146.078ZM783.051 160V145.261C783.051 143.591 782.796 142.396 782.286 141.675C781.794 140.937 780.985 140.567 779.86 140.567C778.894 140.567 778.138 140.945 777.593 141.701C777.048 142.457 776.775 143.424 776.775 144.602V160H765.543V133H776.775V137.219H776.881C777.777 135.672 778.981 134.477 780.493 133.633C782.005 132.771 783.648 132.341 785.424 132.341C791.33 132.341 794.283 136.067 794.283 143.521V160H783.051ZM818.356 159.631C817.847 159.877 817.012 160.105 815.852 160.316C814.691 160.545 813.294 160.659 811.659 160.659C808.53 160.659 806.078 159.798 804.303 158.075C802.545 156.353 801.666 153.9 801.666 150.719V140.778H797.421V133H801.666V127.7L812.74 124.642V133H818.356V140.778H812.74V148.873C812.74 151.246 813.681 152.433 815.562 152.433C816.44 152.433 817.372 152.239 818.356 151.853V159.631ZM822.944 149.638V142.07H837.367V149.638H822.944ZM853.53 149.69C853.724 150.851 854.392 151.765 855.534 152.433C856.677 153.083 858.188 153.408 860.069 153.408C862.688 153.408 865.167 152.907 867.505 151.905V159.024C864.78 160.114 861.476 160.659 857.591 160.659C852.88 160.659 849.215 159.455 846.596 157.047C843.977 154.639 842.667 151.325 842.667 147.106C842.667 144.206 843.238 141.648 844.381 139.434C845.541 137.219 847.246 135.487 849.496 134.239C851.764 132.974 854.26 132.341 856.984 132.341C859.779 132.341 862.17 132.886 864.156 133.976C866.143 135.065 867.646 136.595 868.665 138.563C869.702 140.532 870.221 142.835 870.221 145.472V149.69H853.53ZM860.28 143.811C860.28 140.699 859.164 139.144 856.932 139.144C856 139.144 855.218 139.574 854.585 140.436C853.952 141.279 853.583 142.404 853.478 143.811H860.28ZM891.631 160V145.261C891.631 143.591 891.376 142.396 890.866 141.675C890.374 140.937 889.565 140.567 888.44 140.567C887.474 140.567 886.718 140.945 886.173 141.701C885.628 142.457 885.355 143.424 885.355 144.602V160H874.123V133H885.355V137.219H885.461C886.357 135.672 887.562 134.477 889.073 133.633C890.585 132.771 892.229 132.341 894.004 132.341C899.91 132.341 902.863 136.067 902.863 143.521V160H891.631ZM925.961 160V156.862H925.855C924.959 158.04 923.79 158.972 922.349 159.657C920.907 160.325 919.483 160.659 918.077 160.659C915.774 160.659 913.744 160.097 911.986 158.972C910.229 157.829 908.91 156.238 908.031 154.199C907.17 152.16 906.739 149.752 906.739 146.975C906.739 144.109 907.258 141.569 908.295 139.354C909.332 137.14 910.791 135.417 912.672 134.187C914.553 132.956 916.662 132.341 919 132.341C920.107 132.341 921.127 132.499 922.059 132.815C923.008 133.132 923.825 133.562 924.511 134.107C925.214 134.635 925.662 135.162 925.855 135.689H925.961V120.027H937.193V160H925.961ZM926.198 145.683C926.198 144.065 925.838 142.809 925.117 141.912C924.414 141.016 923.456 140.567 922.243 140.567C921.03 140.567 920.037 141.13 919.264 142.255C918.508 143.362 918.13 144.848 918.13 146.711C918.13 150.525 919.448 152.433 922.085 152.433C923.333 152.433 924.326 151.923 925.064 150.903C925.82 149.866 926.198 148.363 926.198 146.395V145.683ZM630.543 233.053L628.328 230.469C627.15 231.383 625.498 232.147 623.371 232.763C621.262 233.36 619.231 233.659 617.28 233.659C612.974 233.659 609.625 232.728 607.234 230.864C604.844 228.983 603.648 226.364 603.648 223.007C603.648 221.021 604.369 219.122 605.811 217.312C607.252 215.501 609.449 213.857 612.402 212.381C609.889 209.604 608.632 206.826 608.632 204.049C608.632 201.236 609.73 198.951 611.928 197.193C614.143 195.436 617.017 194.557 620.55 194.557C623.907 194.557 626.605 195.348 628.645 196.93C630.701 198.494 631.729 200.586 631.729 203.205C631.729 205.297 631.123 207.099 629.91 208.61C628.697 210.122 626.772 211.484 624.136 212.697L629.515 218.788C630.306 217.206 630.701 215.07 630.701 212.381H639.297C639.297 214.93 638.937 217.224 638.216 219.263C637.495 221.284 636.326 223.13 634.709 224.8L642.276 233.053H630.543ZM623.055 203.785C623.055 203.029 622.773 202.388 622.211 201.86C621.666 201.315 621.024 201.043 620.286 201.043C619.407 201.043 618.704 201.28 618.177 201.755C617.649 202.229 617.386 202.889 617.386 203.732C617.386 204.277 617.544 204.84 617.86 205.42C618.194 205.982 618.95 206.932 620.128 208.268C621.218 207.6 621.974 206.914 622.396 206.211C622.835 205.49 623.055 204.682 623.055 203.785ZM616.357 216.969C615.619 217.32 614.995 217.936 614.485 218.814C613.993 219.676 613.747 220.643 613.747 221.715C613.747 223.209 614.239 224.413 615.224 225.327C616.226 226.224 617.447 226.672 618.889 226.672C619.785 226.672 620.646 226.531 621.473 226.25C622.316 225.951 623.02 225.573 623.582 225.116L616.357 216.969ZM451.615 288.729C451.615 294.794 450.227 299.303 447.449 302.256C444.689 305.191 440.427 306.659 434.661 306.659C429.282 306.659 425.195 305.191 422.4 302.256C419.623 299.303 418.234 294.864 418.234 288.94V268.189H429.678V289.362C429.678 291.788 430.126 293.66 431.022 294.979C431.937 296.279 433.237 296.93 434.925 296.93C436.63 296.93 437.922 296.314 438.801 295.084C439.697 293.854 440.146 292.034 440.146 289.626V268.189H451.615V288.729ZM458.629 306V268.189H470.02V306H458.629ZM481.832 312.275H471.944L490.639 268.189H500.526L481.832 312.275ZM536.465 288.729C536.465 294.794 535.076 299.303 532.299 302.256C529.539 305.191 525.276 306.659 519.511 306.659C514.132 306.659 510.045 305.191 507.25 302.256C504.473 299.303 503.084 294.864 503.084 288.94V268.189H514.527V289.362C514.527 291.788 514.976 293.66 515.872 294.979C516.786 296.279 518.087 296.93 519.774 296.93C521.479 296.93 522.771 296.314 523.65 295.084C524.547 293.854 524.995 292.034 524.995 289.626V268.189H536.465V288.729ZM564.282 306L559.589 295.638C559.29 294.987 559.088 294.354 558.982 293.739C558.895 293.106 558.824 292.588 558.771 292.184H558.666C558.561 292.605 558.438 293.159 558.297 293.845C558.156 294.53 557.954 295.198 557.69 295.849L553.313 306H539.761L551.099 287.147L540.789 268.189H554.553L558.218 278.183C558.552 279.114 558.859 280.345 559.141 281.874H559.246C559.527 280.151 559.853 278.903 560.222 278.13L564.493 268.189H577.176L566.55 286.937L577.677 306H564.282ZM632.072 286.62C632.072 290.452 631.264 293.845 629.646 296.798C628.047 299.733 625.753 302.001 622.765 303.601C619.776 305.2 616.331 306 612.429 306H596.424V268.189H612.086C625.41 268.189 632.072 274.333 632.072 286.62ZM619.97 286.726C619.97 284.88 619.592 283.219 618.836 281.742C618.098 280.266 617.034 279.123 615.646 278.314C614.257 277.506 612.622 277.102 610.741 277.102H607.814V297.088H611.005C613.729 297.088 615.9 296.156 617.518 294.293C619.152 292.412 619.97 289.89 619.97 286.726ZM646.047 295.69C646.24 296.851 646.908 297.765 648.051 298.433C649.193 299.083 650.705 299.408 652.586 299.408C655.205 299.408 657.684 298.907 660.021 297.905V305.024C657.297 306.114 653.992 306.659 650.107 306.659C645.396 306.659 641.731 305.455 639.112 303.047C636.493 300.639 635.184 297.325 635.184 293.106C635.184 290.206 635.755 287.648 636.897 285.434C638.058 283.219 639.763 281.487 642.013 280.239C644.28 278.974 646.776 278.341 649.501 278.341C652.296 278.341 654.687 278.886 656.673 279.976C658.659 281.065 660.162 282.595 661.182 284.563C662.219 286.532 662.737 288.835 662.737 291.472V295.69H646.047ZM652.797 289.811C652.797 286.699 651.681 285.144 649.448 285.144C648.517 285.144 647.734 285.574 647.102 286.436C646.469 287.279 646.1 288.404 645.994 289.811H652.797ZM688.577 297.035C688.577 300.094 687.408 302.467 685.07 304.154C682.75 305.824 679.507 306.659 675.341 306.659C674.128 306.659 672.625 306.536 670.832 306.29C669.057 306.044 667.606 305.745 666.481 305.394V297.51C669.804 298.986 672.581 299.725 674.813 299.725C677.011 299.725 678.109 299.153 678.109 298.011C678.109 297.536 677.854 297.149 677.345 296.851C676.835 296.534 675.499 296.016 673.337 295.295C670.946 294.539 669.206 293.537 668.116 292.289C667.026 291.041 666.481 289.415 666.481 287.411C666.481 284.616 667.589 282.41 669.804 280.793C672.036 279.158 675.165 278.341 679.19 278.341C681.546 278.341 684.042 278.684 686.679 279.369V286.937C685.571 286.462 684.358 286.066 683.04 285.75C681.722 285.434 680.614 285.275 679.718 285.275C678.979 285.275 678.391 285.398 677.951 285.645C677.512 285.891 677.292 286.233 677.292 286.673C677.292 287.183 677.529 287.596 678.004 287.912C678.479 288.229 679.428 288.606 680.852 289.046C683.611 289.854 685.589 290.892 686.784 292.157C687.979 293.423 688.577 295.049 688.577 297.035ZM704.635 271.723C704.635 273.305 704.055 274.588 702.895 275.572C701.752 276.557 700.24 277.049 698.359 277.049C696.531 277.049 695.028 276.539 693.851 275.52C692.69 274.5 692.11 273.234 692.11 271.723C692.11 270.176 692.673 268.928 693.798 267.979C694.94 267.012 696.461 266.528 698.359 266.528C700.24 266.528 701.752 267.012 702.895 267.979C704.055 268.928 704.635 270.176 704.635 271.723ZM692.743 306V279H703.976V306H692.743ZM738.675 302.229C738.675 307.415 737.04 311.449 733.771 314.332C730.519 317.232 725.764 318.683 719.506 318.683C717.818 318.683 716.184 318.551 714.602 318.287C713.02 318.023 711.886 317.725 711.2 317.391V308.584C712.325 309.287 713.644 309.85 715.155 310.271C716.667 310.693 718.012 310.904 719.189 310.904C721.703 310.904 723.716 310.298 725.228 309.085C726.739 307.872 727.495 306.264 727.495 304.26V302.599H727.39C726.581 303.829 725.465 304.813 724.041 305.552C722.635 306.29 721.123 306.659 719.506 306.659C716.025 306.659 713.274 305.455 711.253 303.047C709.231 300.621 708.221 297.281 708.221 293.027C708.221 290.109 708.748 287.534 709.803 285.302C710.857 283.069 712.325 281.355 714.206 280.16C716.087 278.947 718.161 278.341 720.429 278.341C723.54 278.341 725.86 279.492 727.39 281.795H727.495V279H738.675V302.229ZM727.68 291.735C727.68 290.153 727.319 288.896 726.599 287.965C725.896 287.033 724.955 286.567 723.777 286.567C722.512 286.567 721.501 287.13 720.745 288.255C719.989 289.38 719.611 290.883 719.611 292.764C719.611 294.504 719.928 295.884 720.561 296.903C721.193 297.923 722.195 298.433 723.566 298.433C724.85 298.433 725.852 297.914 726.572 296.877C727.311 295.822 727.68 294.416 727.68 292.658V291.735ZM761.614 306V291.261C761.614 289.591 761.359 288.396 760.85 287.675C760.357 286.937 759.549 286.567 758.424 286.567C757.457 286.567 756.701 286.945 756.156 287.701C755.611 288.457 755.339 289.424 755.339 290.602V306H744.106V279H755.339V283.219H755.444C756.341 281.672 757.545 280.477 759.057 279.633C760.568 278.771 762.212 278.341 763.987 278.341C769.894 278.341 772.847 282.067 772.847 289.521V306H761.614ZM787.586 295.69C787.779 296.851 788.447 297.765 789.59 298.433C790.732 299.083 792.244 299.408 794.125 299.408C796.744 299.408 799.223 298.907 801.561 297.905V305.024C798.836 306.114 795.531 306.659 791.646 306.659C786.936 306.659 783.271 305.455 780.651 303.047C778.032 300.639 776.723 297.325 776.723 293.106C776.723 290.206 777.294 287.648 778.437 285.434C779.597 283.219 781.302 281.487 783.552 280.239C785.819 278.974 788.315 278.341 791.04 278.341C793.835 278.341 796.226 278.886 798.212 279.976C800.198 281.065 801.701 282.595 802.721 284.563C803.758 286.532 804.276 288.835 804.276 291.472V295.69H787.586ZM794.336 289.811C794.336 286.699 793.22 285.144 790.987 285.144C790.056 285.144 789.273 285.574 788.641 286.436C788.008 287.279 787.639 288.404 787.533 289.811H794.336ZM828.481 288.624C828.06 288.431 827.488 288.255 826.768 288.097C826.047 287.938 825.449 287.859 824.975 287.859C821.266 287.859 819.411 290.004 819.411 294.293V306H808.179V279H819.411V283.746H819.517C820.202 282.041 821.178 280.749 822.443 279.87C823.709 278.974 825.186 278.525 826.873 278.525C827.488 278.525 828.024 278.631 828.481 278.842V288.624Z" fill="url(#paint22_linear_410_3)"/>
</g>
<defs>
<linearGradient id="paint0_linear_410_3" x1="0" y1="175" x2="1020" y2="175" gradientUnits="userSpaceOnUse">
<stop stop-color="#110D13"/>
<stop offset="1" stop-color="#131219"/>
</linearGradient>
<linearGradient id="paint1_linear_410_3" x1="428.872" y1="328.329" x2="389.001" y2="360.725" gradientUnits="userSpaceOnUse">
<stop stop-color="#FF2828" stop-opacity="0"/>
<stop offset="1" stop-color="#FF5E1C" stop-opacity="0.57"/>
</linearGradient>
<linearGradient id="paint2_linear_410_3" x1="428.872" y1="328.329" x2="389.001" y2="360.725" gradientUnits="userSpaceOnUse">
<stop stop-color="#FF2828" stop-opacity="0"/>
<stop offset="1" stop-color="#FF5E1C" stop-opacity="0.57"/>
</linearGradient>
<linearGradient id="paint3_linear_410_3" x1="770.872" y1="251.329" x2="731.001" y2="283.725" gradientUnits="userSpaceOnUse">
<stop stop-color="#FF2828" stop-opacity="0"/>
<stop offset="1" stop-color="#FF5E1C" stop-opacity="0.57"/>
</linearGradient>
<linearGradient id="paint4_linear_410_3" x1="770.872" y1="251.329" x2="731.001" y2="283.725" gradientUnits="userSpaceOnUse">
<stop stop-color="#FF2828" stop-opacity="0"/>
<stop offset="1" stop-color="#FF5E1C" stop-opacity="0.57"/>
</linearGradient>
<linearGradient id="paint5_linear_410_3" x1="502.872" y1="71.3294" x2="463.001" y2="103.725" gradientUnits="userSpaceOnUse">
<stop stop-color="#FF2828" stop-opacity="0"/>
<stop offset="1" stop-color="#FF5E1C" stop-opacity="0.57"/>
</linearGradient>
<linearGradient id="paint6_linear_410_3" x1="502.872" y1="71.3294" x2="463.001" y2="103.725" gradientUnits="userSpaceOnUse">
<stop stop-color="#FF2828" stop-opacity="0"/>
<stop offset="1" stop-color="#FF5E1C" stop-opacity="0.57"/>
</linearGradient>
<linearGradient id="paint7_linear_410_3" x1="103.872" y1="293.329" x2="64.0007" y2="325.725" gradientUnits="userSpaceOnUse">
<stop stop-color="#FF2828" stop-opacity="0"/>
<stop offset="1" stop-color="#FF5E1C" stop-opacity="0.57"/>
</linearGradient>
<linearGradient id="paint8_linear_410_3" x1="103.872" y1="293.329" x2="64.0007" y2="325.725" gradientUnits="userSpaceOnUse">
<stop stop-color="#FF2828" stop-opacity="0"/>
<stop offset="1" stop-color="#FF5E1C" stop-opacity="0.57"/>
</linearGradient>
<linearGradient id="paint9_linear_410_3" x1="988.872" y1="94.3294" x2="949.001" y2="126.725" gradientUnits="userSpaceOnUse">
<stop stop-color="#FF2828" stop-opacity="0"/>
<stop offset="1" stop-color="#FF5E1C" stop-opacity="0.57"/>
</linearGradient>
<linearGradient id="paint10_linear_410_3" x1="988.872" y1="94.3294" x2="949.001" y2="126.725" gradientUnits="userSpaceOnUse">
<stop stop-color="#FF2828" stop-opacity="0"/>
<stop offset="1" stop-color="#FF5E1C" stop-opacity="0.57"/>
</linearGradient>
<linearGradient id="paint11_linear_410_3" x1="103.872" y1="40.3294" x2="64.0007" y2="72.7246" gradientUnits="userSpaceOnUse">
<stop stop-color="#FF2828" stop-opacity="0"/>
<stop offset="1" stop-color="#FF5E1C" stop-opacity="0.57"/>
</linearGradient>
<linearGradient id="paint12_linear_410_3" x1="103.872" y1="40.3294" x2="64.0007" y2="72.7246" gradientUnits="userSpaceOnUse">
<stop stop-color="#FF2828" stop-opacity="0"/>
<stop offset="1" stop-color="#FF5E1C" stop-opacity="0.57"/>
</linearGradient>
<linearGradient id="paint13_linear_410_3" x1="307.161" y1="40.3294" x2="267.29" y2="72.7246" gradientUnits="userSpaceOnUse">
<stop stop-color="#FF2828" stop-opacity="0"/>
<stop offset="1" stop-color="#FF5E1C" stop-opacity="0.57"/>
</linearGradient>
<linearGradient id="paint14_linear_410_3" x1="307.161" y1="40.3294" x2="267.29" y2="72.7246" gradientUnits="userSpaceOnUse">
<stop stop-color="#FF2828" stop-opacity="0"/>
<stop offset="1" stop-color="#FF5E1C" stop-opacity="0.57"/>
</linearGradient>
<linearGradient id="paint15_linear_410_3" x1="827.557" y1="24.3294" x2="787.686" y2="56.7246" gradientUnits="userSpaceOnUse">
<stop stop-color="#FF2828" stop-opacity="0"/>
<stop offset="1" stop-color="#FF5E1C" stop-opacity="0.57"/>
</linearGradient>
<linearGradient id="paint16_linear_410_3" x1="827.557" y1="24.3294" x2="787.686" y2="56.7246" gradientUnits="userSpaceOnUse">
<stop stop-color="#FF2828" stop-opacity="0"/>
<stop offset="1" stop-color="#FF5E1C" stop-opacity="0.57"/>
</linearGradient>
<linearGradient id="paint17_linear_410_3" x1="32.5" y1="173.333" x2="263.5" y2="173.333" gradientUnits="userSpaceOnUse">
<stop stop-color="#331205"/>
<stop offset="1" stop-color="#330808"/>
</linearGradient>
<linearGradient id="paint18_linear_410_3" x1="227.265" y1="172.156" x2="68.7351" y2="172.156" gradientUnits="userSpaceOnUse">
<stop stop-color="#FF2828"/>
<stop offset="1" stop-color="#FF5E1C"/>
</linearGradient>
<linearGradient id="paint19_linear_410_3" x1="227.265" y1="172.156" x2="68.7351" y2="172.156" gradientUnits="userSpaceOnUse">
<stop stop-color="#FF2828"/>
<stop offset="1" stop-color="#FF5E1C"/>
</linearGradient>
<linearGradient id="paint20_linear_410_3" x1="227.265" y1="172.156" x2="68.7351" y2="172.156" gradientUnits="userSpaceOnUse">
<stop stop-color="#FF2828"/>
<stop offset="1" stop-color="#FF5E1C"/>
</linearGradient>
<linearGradient id="paint21_linear_410_3" x1="816.623" y1="348.538" x2="816.623" y2="4.92108e-05" gradientUnits="userSpaceOnUse">
<stop stop-color="#FF2828" stop-opacity="0.11"/>
<stop offset="1" stop-color="#FF5E1C"/>
</linearGradient>
<linearGradient id="paint22_linear_410_3" x1="940" y1="173.525" x2="304" y2="173.525" gradientUnits="userSpaceOnUse">
<stop stop-color="#FF2828"/>
<stop offset="1" stop-color="#FF5E1C"/>
</linearGradient>
<clipPath id="clip0_410_3">
<rect width="1020" height="350" rx="32" fill="white"/>
</clipPath>
</defs>
</svg>
